<svg width="321" height="40" viewBox="0 0 321 40" fill="none" xmlns="http://www.w3.org/2000/svg">
<g clip-path="url(#clip0_1_110)">
<path d="M25.7239 0C26.4039 0.197631 27.0373 0.35612 27.6363 0.59984C29.9224 1.53009 31.4991 3.19113 32.2544 5.5251C33.3383 8.87521 32.6111 11.8802 30.1137 14.3535C29.2185 15.2401 28.0958 15.8982 27.0669 16.6465C25.5525 17.7481 24.029 18.8372 22.5146 19.928C24.9765 21.7066 27.5053 23.421 29.9015 25.3052C31.4166 26.4965 32.2374 28.2039 32.5759 30.1316C32.9243 32.1138 32.6164 33.9748 31.6347 35.7139C30.399 37.9031 28.532 39.2487 26.0668 39.7314C23.2918 40.2748 20.9076 39.4435 18.6795 37.7692C15.2008 35.1554 11.6473 32.6414 8.12094 30.0914C6.53311 28.9431 4.91396 27.8373 3.34613 26.6625C1.57619 25.3364 0.394188 23.6174 0.0381277 21.352C-0.0127092 20.4416 -0.0127092 19.55 0.0381277 18.5772C0.384998 16.3253 1.47104 14.5862 3.17612 13.2962C5.69945 11.3872 8.3031 9.58494 10.8707 7.73458C12.722 6.40036 14.5609 5.04857 16.423 3.72963C17.8077 2.74894 19.1859 1.75085 20.6356 0.874587C21.3405 0.448404 22.2027 0.283295 22.9935 0C23.8829 0 24.7723 0 25.7239 0ZM7.8741 28.1604C12.0259 31.152 16.1761 34.1462 20.3304 37.1342C21.9114 38.2715 23.6372 38.7925 25.596 38.3973C28.5943 37.7924 30.8867 35.5788 31.2159 32.3574C31.4899 29.677 30.5108 27.475 28.2817 25.8729C22.9927 22.0721 17.7103 18.2621 12.4325 14.4457C10.6889 13.1849 8.76855 12.81 6.68052 13.2106C3.98475 13.7276 1.47131 16.5524 1.32372 19.2742C1.18442 21.8427 2.14082 23.938 4.1887 25.4963C5.36964 26.3948 6.5899 27.2415 7.8741 28.1604ZM9.64723 10.4171C9.12753 10.7997 8.60783 11.1823 7.95459 11.6632C8.2255 11.7062 8.30559 11.7326 8.38449 11.7295C10.2845 11.6527 11.9095 12.3551 13.4159 13.4547C15.9931 15.336 18.5906 17.1892 21.1753 19.0514C21.2546 19.013 21.3189 18.9927 21.3711 18.9552C23.7998 17.208 26.2616 15.5047 28.6462 13.6988C31.3546 11.6473 31.8983 8.14137 30.6075 5.29746C28.7946 1.30293 23.6808 0.308508 20.4054 2.66632C16.8439 5.22995 13.2864 7.79882 9.64723 10.4171Z" fill="#101011"/>
<path d="M7.83327 28.1359C6.58989 27.2415 5.36962 26.3948 4.18869 25.4963C2.14081 23.938 1.18441 21.8427 1.32371 19.2742C1.47131 16.5524 3.98475 13.7276 6.6805 13.2106C8.76855 12.81 10.6889 13.1849 12.4325 14.4458C17.7103 18.2622 22.9927 22.0721 28.2817 25.8729C30.5108 27.475 31.4899 29.6771 31.2159 32.3575C30.8867 35.5788 28.5943 37.7924 25.596 38.3974C23.6372 38.7925 21.9114 38.2715 20.3304 37.1342C16.1759 34.1462 12.0259 31.152 7.83327 28.1359Z" fill="#4285F3"/>
<path d="M9.68717 10.3912C13.2863 7.79884 16.844 5.22997 20.4054 2.66634C23.6808 0.308525 28.7946 1.30296 30.6075 5.29747C31.8983 8.14138 31.3546 11.6473 28.6462 13.6988C26.2616 15.5047 23.7998 17.208 21.3711 18.9552C21.319 18.9927 21.2546 19.013 21.1753 19.0514C18.5906 17.1892 15.9931 15.336 13.4159 13.4546C11.9095 12.3551 10.2845 11.6528 8.3845 11.7295C8.30559 11.7327 8.2255 11.7062 7.95459 11.6632C8.60782 11.1823 9.12752 10.7997 9.68717 10.3912Z" fill="#E94335"/>
<path d="M44.9893 0.00238037C45.7653 0.249716 46.5467 0.384481 47.1787 0.767298C48.5908 1.62269 49.95 2.57151 51.2923 3.53629C54.8432 6.08881 58.3799 8.66141 61.909 11.2443C63.2334 12.2137 64.5762 13.1703 65.8101 14.2484C67.052 15.333 67.6415 16.8381 67.9172 18.4382C68.4547 21.5581 67.4928 24.2079 65.1506 26.2788C63.9285 27.3595 62.5249 28.2347 61.1969 29.1939C58.5441 31.1102 55.8893 33.0236 53.2309 34.9321C51.395 36.2499 49.586 37.6101 47.6982 38.8489C46.6929 39.5085 45.5024 39.7957 44.282 39.8713C42.7185 39.9683 41.2019 39.7725 39.8028 39.0427C37.3243 37.7501 35.7633 35.6805 35.3771 32.9383C34.8706 29.3431 36.2278 26.4808 39.2484 24.4056C41.342 22.9673 43.3786 21.4458 45.4696 19.9408C43.4809 18.4933 41.5524 17.0091 39.5404 15.6494C37.7808 14.4601 36.3596 13.0313 35.7213 10.973C34.8847 8.27553 35.1792 5.70411 36.8451 3.37395C37.9776 1.78987 39.4862 0.715218 41.3955 0.249038C41.6251 0.192988 41.8582 0.151764 42.1078 0.0530238C43.0596 0.0023805 43.9932 0.0023805 44.9893 0.00238037ZM66.6095 19.9355C66.6076 17.7029 65.769 15.8274 63.9804 14.5191C58.4715 10.489 52.9172 6.52131 47.3795 2.53082C45.7966 1.39015 43.9691 1.19115 42.1692 1.55353C39.3284 2.12544 37.4868 3.97357 36.87 6.80208C36.2609 9.59524 37.1557 11.9789 39.4271 13.7609C40.5073 14.6085 41.648 15.3787 42.7626 16.1824C47.113 19.3188 51.4413 22.4865 55.8237 25.5774C58.0575 27.1529 60.5014 27.2922 62.9257 26.0313C65.3033 24.7945 66.5162 22.7564 66.6095 19.9355ZM41.485 38.2232C42.0845 38.3273 42.6818 38.5035 43.2838 38.5217C44.9426 38.572 46.4303 38.0387 47.7746 37.0655C50.9949 34.7338 54.2233 32.4134 57.4486 30.0885C58.2311 29.5244 59.0134 28.9603 59.9333 28.2971C58.1682 28.1763 56.6399 27.8176 55.3106 26.9051C53.7818 25.8553 52.2898 24.7519 50.7831 23.67C49.4421 22.7071 48.1026 21.7418 46.7726 20.7848C46.2685 21.148 45.8213 21.4688 45.3755 21.7916C43.3346 23.269 41.2646 24.7084 39.2611 26.2354C37.0734 27.9032 36.1041 31.0491 36.9435 33.5383C37.6986 35.7778 39.1582 37.3528 41.485 38.2232Z" fill="#10110F"/>
<path d="M66.6095 19.9991C66.5163 22.7564 65.3033 24.7945 62.9258 26.0313C60.5015 27.2922 58.0576 27.1529 55.8237 25.5774C51.4413 22.4865 47.113 19.3188 42.7627 16.1824C41.648 15.3787 40.5074 14.6085 39.4272 13.7609C37.1558 11.9789 36.261 9.59525 36.87 6.8021C37.4868 3.97358 39.3285 2.12545 42.1691 1.55354C43.9691 1.19116 45.7965 1.39018 47.3795 2.53084C52.9173 6.52132 58.4716 10.489 63.9805 14.5191C65.7691 15.8274 66.6077 17.7029 66.6095 19.9991Z" fill="#34A853"/>
<path d="M41.4463 38.186C39.1583 37.3528 37.6986 35.7779 36.9435 33.5384C36.1042 31.0491 37.0735 27.9032 39.2612 26.2355C41.2646 24.7084 43.3346 23.269 45.3756 21.7916C45.8213 21.4688 46.2685 21.148 46.7727 20.7848C48.1026 21.7418 49.4421 22.7072 50.7831 23.67C52.2898 24.7519 53.7819 25.8553 55.3107 26.9051C56.64 27.8176 58.1682 28.1763 59.9334 28.2971C59.0135 28.9603 58.2312 29.5244 57.4486 30.0885C54.2234 32.4134 50.9949 34.7338 47.7746 37.0655C46.4303 38.0388 44.9427 38.5719 43.2839 38.5218C42.6819 38.5035 42.0846 38.3273 41.4463 38.186Z" fill="#F8AA00"/>
<path d="M309.736 16.6613C309.053 18.3257 307.769 19.0006 306.081 19.1953C304.504 19.377 303.113 19.0261 301.939 18.0016C301.486 17.6065 301.218 16.9956 300.894 16.4653C300.859 16.4074 300.986 16.1731 301.089 16.1213C301.538 15.8951 302.005 15.706 302.506 15.486C302.883 16.3187 303.44 16.9695 304.271 17.2738C305.337 17.6643 306.441 17.7086 307.386 16.9837C308.016 16.5015 308.096 15.6294 307.339 15.0286C306.563 14.4134 305.594 14.2889 304.678 14.0431C303.639 13.7644 302.644 13.4289 301.851 12.6306C300.962 11.7348 301.048 9.47459 302.244 8.57853C303.882 7.35244 306.772 7.29581 308.326 8.51939C308.817 8.9064 309.199 9.4336 309.695 9.96595C308.986 10.2916 308.418 10.552 307.852 10.8123C307.158 9.37984 305.208 8.93488 303.852 9.69021C303.419 9.93128 303.1 10.2719 303.132 10.7973C303.163 11.2975 303.422 11.6965 303.907 11.86C304.761 12.1484 305.629 12.3995 306.494 12.6568C307.625 12.9932 308.73 13.3732 309.399 14.45C309.522 14.647 309.578 14.8849 309.7 15.1155C309.736 15.6231 309.736 16.1191 309.736 16.6613Z" fill="#1E1E1E"/>
<path d="M83.4403 7.49916C81.6243 10.007 81.8735 13.8572 84.3579 15.961C85.7808 17.1657 87.425 17.5852 89.2903 17.3213C90.6315 17.1316 91.7369 16.5851 92.6213 15.5869C93.3889 14.7205 93.7432 13.6761 93.8555 12.4605C92.8931 12.4605 91.9645 12.4605 91.0359 12.4605C90.1154 12.4605 89.195 12.4605 88.2392 12.4605C88.2392 11.8854 88.2392 11.3183 88.2392 10.7167C90.6896 10.7167 93.1632 10.7167 95.6779 10.7167C95.9592 12.7932 95.588 14.7319 94.3199 16.4576C93.1526 18.046 91.5125 18.8742 89.6198 19.1607C87.3051 19.5111 85.1305 19.0364 83.294 17.5435C81.8242 16.3487 80.855 14.8074 80.4921 12.8915C80.1281 10.9686 80.3439 9.15073 81.2492 7.42914C82.3293 5.37492 84.0092 4.02391 86.2647 3.48731C88.2968 3.00384 90.301 3.1805 92.1651 4.18027C92.8149 4.52883 93.3794 5.03679 93.9943 5.48018C93.4544 6.00738 93.0102 6.44113 92.558 6.88284C91.7824 6.06482 90.8135 5.51124 89.6512 5.23007C88.3772 4.92186 87.1814 5.07168 85.9827 5.5314C84.9439 5.92977 84.1148 6.57942 83.4403 7.49916Z" fill="#1E1E1E"/>
<path d="M246.261 6.00816C246.908 5.10425 247.792 4.55641 248.716 4.06752C250.148 3.31028 251.704 3.13502 253.275 3.29232C255.069 3.472 256.674 4.15138 257.919 5.48706C257.45 5.93796 256.993 6.37823 256.515 6.83822C255.805 6.0172 254.802 5.49334 253.632 5.22284C251.808 4.80105 250.177 5.22082 248.679 6.26909C247.435 7.13977 246.711 8.39147 246.427 9.83948C245.973 12.154 246.509 14.2506 248.284 15.8724C250.371 17.7792 253.498 17.9272 255.752 16.4028C257.029 15.5393 257.692 14.2758 257.833 12.7399C257.84 12.6598 257.867 12.5815 257.891 12.4667C256.047 12.4667 254.201 12.4667 252.331 12.4667C252.331 11.8631 252.331 11.2967 252.331 10.7063C254.78 10.7063 257.221 10.7063 259.686 10.7063C259.98 12.3632 259.766 13.9574 259.002 15.4301C257.947 17.4612 256.237 18.6487 253.984 19.0835C252.054 19.456 250.218 19.2304 248.493 18.2872C246.279 17.0758 244.915 15.2312 244.513 12.719C244.149 10.4496 244.528 8.33474 245.893 6.4424C245.997 6.29851 246.124 6.172 246.261 6.00816Z" fill="#1E1E1E"/>
<path d="M128.833 22.4056C127.98 23.1785 127.009 23.6284 125.904 23.7648C123.645 24.0442 121.423 23.5097 120.193 21.2002C120.112 21.0474 120.07 20.874 120.003 20.6953C120.56 20.4635 121.126 20.2278 121.708 19.9862C121.908 20.2783 122.095 20.5921 122.322 20.8749C123.089 21.8331 124.088 22.1674 125.304 22.0565C126.09 21.985 126.769 21.7508 127.345 21.2299C128.028 20.6133 128.251 19.775 128.355 18.9111C128.416 18.399 128.365 17.8736 128.365 17.2999C127.435 18.4538 126.317 19.0448 124.864 19.0958C123.464 19.145 122.258 18.7331 121.253 17.8118C120.45 17.0771 119.939 16.1182 119.691 15.0558C119.403 13.8315 119.43 12.6047 119.777 11.3826C120.286 9.58258 121.895 7.97529 123.74 7.70387C124.901 7.53324 125.987 7.62844 126.989 8.22609C127.484 8.52129 127.908 8.93602 128.365 9.29833C128.365 8.88554 128.365 8.42035 128.365 7.93722C128.96 7.93722 129.515 7.93722 130.142 7.93722C130.142 8.09657 130.142 8.2688 130.142 8.44104C130.142 11.995 130.147 15.5489 130.139 19.1028C130.137 20.2852 129.729 21.3231 128.942 22.2092C128.901 22.2547 128.884 22.3205 128.833 22.4056ZM127.733 15.8109C128.194 14.9608 128.442 14.0583 128.363 13.0867C128.255 11.7624 127.854 10.6252 126.633 9.85457C125.251 8.98301 123.099 9.35126 122.146 10.7926C121.511 11.7524 121.312 12.787 121.446 13.9297C121.561 14.9094 121.899 15.7319 122.607 16.4379C124.097 17.924 126.578 17.571 127.733 15.8109Z" fill="#1E1E1E"/>
<path d="M151.061 17.4968C151.061 12.8416 151.061 8.23553 151.061 3.57149C151.62 3.57149 152.156 3.57149 152.692 3.57149C153.793 3.57149 154.895 3.55197 155.996 3.57607C157.641 3.61207 159.199 3.98754 160.553 4.96217C162.065 6.05039 162.932 7.56312 163.297 9.37578C163.619 10.9703 163.55 12.5376 163.021 14.0888C162.167 16.5981 160.4 18.0832 157.867 18.6662C157.119 18.8385 156.327 18.8555 155.553 18.8713C154.076 18.9017 152.598 18.8802 151.061 18.8802C151.061 18.4217 151.061 17.9839 151.061 17.4968ZM159.49 6.52866C157.521 5.04665 155.245 5.52088 153.071 5.45159C153.071 9.37781 153.071 13.2359 153.071 17.0036C154.3 17.0036 155.494 17.0502 156.683 16.9908C157.933 16.9284 159.068 16.4599 159.941 15.5557C161.568 13.87 161.762 11.7913 161.377 9.60811C161.16 8.37418 160.493 7.38185 159.49 6.52866Z" fill="#1E1E1E"/>
<path d="M299.354 9.3286C300.268 10.4642 300.734 11.7192 300.763 13.1518C300.79 14.4654 300.596 15.7202 299.876 16.8381C299.008 18.1872 297.807 18.9956 296.166 19.1956C294.693 19.3749 293.46 18.9663 292.363 18.0288C292.199 17.8888 292.074 17.7022 291.882 17.4794C291.882 19.5222 291.882 21.4992 291.882 23.4989C291.243 23.4989 290.644 23.4989 290.023 23.4989C290.023 18.3122 290.023 13.1387 290.023 7.94128C290.599 7.94128 291.165 7.94128 291.771 7.94128C291.771 8.4487 291.771 8.9477 291.771 9.36991C292.298 8.96824 292.792 8.4749 293.381 8.16699C295.087 7.27628 296.777 7.44442 298.381 8.46686C298.732 8.69063 299.015 9.02124 299.354 9.3286ZM294 9.68837C293.522 10.086 292.962 10.4181 292.582 10.894C291.559 12.1746 291.535 14.6131 292.621 16.0487C294.038 17.9212 296.655 18.0729 298.078 16.0137C299.163 14.4432 299.168 12.7503 298.241 11.086C297.422 9.61626 295.65 8.9729 294 9.68837Z" fill="#1E1E1E"/>
<path d="M210.564 12.9543C210.565 11.2925 210.566 9.68007 210.567 8.06766C210.567 8.03686 210.58 8.00606 210.593 7.94635C211.152 7.94635 211.719 7.94635 212.324 7.94635C212.324 8.44054 212.324 8.94121 212.324 9.45041C212.712 9.1016 213.053 8.75082 213.438 8.45627C214.609 7.56023 215.951 7.43215 217.328 7.75331C219.403 8.23743 220.966 10.1366 221.237 12.2434C221.407 13.5721 221.351 14.863 220.813 16.0766C220.047 17.8036 218.771 18.9201 216.819 19.1873C215.222 19.4055 213.886 18.9523 212.746 17.8482C212.613 17.7197 212.509 17.5611 212.439 17.475C212.439 18.446 212.439 19.453 212.439 20.4599C212.439 21.4614 212.439 22.4628 212.439 23.4932C211.819 23.4932 211.22 23.4932 210.564 23.4932C210.564 19.9994 210.564 16.5015 210.564 12.9543ZM214.124 16.9621C215.864 18.0597 217.768 17.4314 218.785 15.8152C219.349 14.9212 219.526 13.912 219.365 12.827C219.209 11.7737 218.837 10.8876 218.017 10.1814C216.497 8.87184 214.295 9.19016 213.138 10.8768C212.462 11.8609 212.219 12.9448 212.423 14.1582C212.618 15.316 213.095 16.2486 214.124 16.9621Z" fill="#1E1E1E"/>
<path d="M188.443 17.3347C189.534 17.6483 190.56 17.5588 191.442 16.8851C191.92 16.5191 192.286 16.0042 192.725 15.5319C193.205 15.7738 193.729 16.0379 194.251 16.301C193.608 17.8681 191.862 19.054 190.206 19.2015C189.016 19.3075 187.89 19.2031 186.854 18.6617C185.352 17.877 184.465 16.5955 184.113 14.9255C183.808 13.4823 183.901 12.0837 184.519 10.7481C185.268 9.13211 186.442 8.0218 188.272 7.71422C189.583 7.49369 190.809 7.65776 191.987 8.30203C193.263 8.99973 193.937 10.1256 194.267 11.4681C194.449 12.2131 194.464 12.9995 194.562 13.8328C191.617 13.8328 188.769 13.8328 185.922 13.8328C185.903 15.5214 186.988 16.9254 188.443 17.3347ZM186.979 10.3388C186.467 10.8687 186.171 11.5093 185.99 12.2427C188.163 12.2427 190.312 12.2427 192.46 12.2437C192.283 10.8205 191.566 9.79687 190.143 9.47519C189.009 9.21879 187.887 9.33066 186.979 10.3388Z" fill="#1E1E1E"/>
<path d="M222.629 10.1226C223.64 8.5275 225.029 7.66234 226.907 7.61663C228.219 7.58474 229.429 7.89866 230.44 8.7322C231.427 9.54545 231.962 10.6596 232.166 11.9121C232.267 12.5311 232.267 13.1665 232.316 13.8432C230.813 13.8432 229.388 13.8432 227.963 13.8432C226.552 13.8432 225.141 13.8432 223.734 13.8432C223.624 15.1137 224.521 16.7007 225.956 17.246C227.247 17.7362 229.034 17.7656 230.476 15.5103C230.998 15.7735 231.522 16.0376 232.044 16.3005C231.406 17.8652 229.657 19.0544 228.001 19.2015C226.81 19.3072 225.684 19.2032 224.648 18.6616C223.145 17.8765 222.253 16.5961 221.907 14.9242C221.61 13.4837 221.732 12.0941 222.309 10.744C222.396 10.5416 222.507 10.3498 222.629 10.1226ZM226.214 9.4865C224.768 9.83904 224.177 10.9348 223.779 12.2468C225.977 12.2468 228.127 12.2468 230.269 12.2468C230.162 11.1762 229.651 10.3663 228.765 9.79003C227.991 9.28696 227.129 9.37969 226.214 9.4865Z" fill="#1E1E1E"/>
<path d="M164.997 16.8642C164.336 15.669 163.997 14.4305 164.09 13.0957C164.235 10.9882 165.067 9.24034 166.956 8.18701C167.977 7.61735 169.123 7.52191 170.318 7.69417C171.533 7.8695 172.497 8.39333 173.301 9.285C174.054 10.1222 174.431 11.1174 174.547 12.2246C174.58 12.5455 174.635 12.866 174.642 13.1875C174.656 13.8427 174.646 13.8431 174.013 13.8431C171.532 13.8432 169.05 13.8432 166.57 13.8432C166.41 13.8432 166.25 13.8432 166.094 13.8432C165.979 15.2263 166.904 16.7506 168.381 17.2683C169.919 17.8067 171.431 17.6067 172.811 15.5474C173.324 15.7816 173.839 16.0162 174.373 16.2597C174.133 17.1541 173.473 17.7147 172.838 18.2397C171.818 19.0822 170.552 19.3269 169.274 19.2564C167.604 19.1642 166.175 18.5031 165.188 17.0712C165.143 17.0048 165.074 16.9545 164.997 16.8642ZM166.909 12.2629C168.794 12.2629 170.679 12.2629 172.565 12.2629C172.513 10.76 171.4 9.57168 169.959 9.40362C167.724 9.14287 166.472 10.5564 166.173 12.2629C166.39 12.2629 166.602 12.2629 166.909 12.2629Z" fill="#1E1E1E"/>
<path d="M134.78 15.0242C134.342 13.1567 134.626 11.4504 135.64 9.87401C137.29 7.3086 140.761 6.97142 143.017 8.53829C144.267 9.40596 144.883 10.6879 145.041 12.1921C145.082 12.5781 145.097 12.9669 145.144 13.3519C145.193 13.7533 145.022 13.8532 144.639 13.8509C142.124 13.8359 139.609 13.8432 137.094 13.8432C136.932 13.8432 136.77 13.8432 136.615 13.8432C136.376 14.8471 137.256 16.6896 138.851 17.2625C140.407 17.8216 142.044 17.5414 143.313 15.5176C143.757 15.7344 144.217 15.9381 144.651 16.1865C144.75 16.2431 144.848 16.514 144.798 16.5859C143.843 17.9871 142.672 19.0237 140.86 19.1984C139.67 19.3132 138.547 19.1972 137.508 18.659C136.051 17.9043 135.152 16.674 134.78 15.0242ZM137.988 12.2629C139.674 12.2629 141.36 12.2629 143.044 12.2629C143.103 10.8624 141.888 9.58138 140.587 9.40609C138.246 9.09067 136.941 10.6223 136.665 12.2629C137.078 12.2629 137.483 12.2629 137.988 12.2629Z" fill="#1E1E1E"/>
<path d="M100.268 7.82031C102.007 7.4122 103.633 7.54369 105.088 8.57707C106.445 9.54156 107.232 10.8582 107.461 12.5391C107.644 13.8784 107.484 15.1396 106.845 16.3107C105.938 17.9723 104.583 18.9826 102.634 19.1962C101.46 19.3248 100.35 19.1961 99.3314 18.6646C97.702 17.8151 96.7167 16.4364 96.3973 14.6145C96.1093 12.9715 96.3526 11.4218 97.2802 10.0069C97.946 8.99144 98.8568 8.29803 100.006 7.916C100.081 7.89104 100.152 7.85357 100.268 7.82031ZM99.5584 16.6663C100.01 16.8895 100.444 17.1691 100.918 17.325C102.206 17.7492 103.34 17.4105 104.332 16.5164C105.305 15.6404 105.626 14.5378 105.583 13.2557C105.539 11.9568 105.092 10.9014 104.053 10.0968C102.463 8.86592 100.17 9.2508 98.9929 10.8265C97.715 12.5373 97.9061 15.1628 99.5584 16.6663Z" fill="#1E1E1E"/>
<path d="M198.528 15.0953C198.46 14.4936 198.336 13.9339 198.34 13.3752C198.351 11.7972 198.852 10.3634 199.955 9.23138C200.766 8.39984 201.779 7.87548 202.976 7.70452C204.141 7.53813 205.238 7.63991 206.319 8.10664C207.623 8.66933 208.496 9.64315 209.08 10.9017C209.538 11.8903 209.653 12.9495 209.57 14.02C209.476 15.239 209.043 16.3308 208.262 17.2948C207.45 18.2974 206.405 18.9237 205.173 19.1461C202.408 19.6448 199.739 18.5228 198.626 15.4055C198.595 15.3162 198.561 15.227 198.528 15.0953ZM207.703 13.1317C207.637 12.8039 207.584 12.4728 207.503 12.1487C207.174 10.825 206.306 9.92722 205.058 9.53401C203.764 9.12653 202.494 9.37867 201.483 10.3533C200.448 11.3517 200.097 12.5949 200.294 14.0266C200.499 15.5198 201.198 16.5898 202.609 17.2178C204.029 17.8497 205.726 17.3255 206.61 16.3571C207.414 15.4777 207.713 14.3979 207.703 13.1317Z" fill="#1E1E1E"/>
<path d="M272.914 7.62091C274.876 7.74328 276.324 8.63639 277.366 10.2426C278 11.2198 278.243 12.3286 278.224 13.4321C278.186 15.7054 277.294 17.5945 275.18 18.6673C274.179 19.1752 273.086 19.3412 271.922 19.1996C270.602 19.039 269.475 18.5466 268.572 17.6115C267.572 16.5756 267.067 15.3024 267.001 13.8462C266.943 12.5586 267.144 11.3384 267.822 10.2344C268.671 8.85092 269.89 7.97517 271.512 7.72505C271.958 7.65621 272.415 7.65381 272.914 7.62091ZM272.398 9.39869C271.165 9.41146 270.269 10.0399 269.577 10.9945C268.581 12.368 268.589 14.6618 269.711 16.0825C271.063 17.7935 273.417 18.0088 275.027 16.5331C275.997 15.6429 276.298 14.5125 276.296 13.2263C276.293 11.1943 274.585 9.22465 272.398 9.39869Z" fill="#1E1E1E"/>
<path d="M110.712 8.31125C113.03 7.0471 116.107 7.48613 117.794 9.5461C118.634 10.5719 119.076 11.7531 119.105 13.1128C119.135 14.4205 118.93 15.6413 118.21 16.7431C117.249 18.2149 115.903 19.0101 114.132 19.1932C112.297 19.383 110.732 18.8707 109.469 17.5723C108.482 16.5577 107.955 15.2974 107.936 13.8498C107.924 12.8447 107.988 11.8703 108.407 10.9219C108.85 9.91625 109.508 9.12585 110.4 8.51024C110.492 8.4465 110.583 8.38043 110.712 8.31125ZM110.014 11.8593C110.001 11.9544 109.996 12.0513 109.974 12.1444C109.582 13.8208 109.773 15.3585 111.117 16.5719C112.753 18.0481 115.147 17.7468 116.415 16.0285C117.41 14.6798 117.51 13.1343 116.88 11.6396C116.214 10.0582 114.681 9.06516 112.716 9.48015C111.377 9.76313 110.607 10.6368 110.014 11.8593Z" fill="#1E1E1E"/>
<path d="M279.047 15.303C279.047 12.825 279.047 10.3942 279.047 7.94037C279.681 7.94037 280.279 7.94037 280.922 7.94037C280.922 8.34246 280.922 8.73259 280.922 9.12271C280.922 10.9158 280.894 12.7096 280.937 14.5017C280.952 15.1768 281.007 15.8707 281.422 16.4743C282.065 17.4064 283.17 17.6386 284.058 17.4603C285.577 17.1552 286.563 15.5927 286.551 14.1892C286.534 12.1185 286.547 10.0476 286.547 7.9471C287.199 7.9471 287.83 7.9471 288.491 7.9471C288.491 11.5667 288.491 15.1933 288.491 18.8501C287.902 18.8501 287.303 18.8501 286.665 18.8501C286.665 18.4249 286.665 17.9898 286.665 17.4729C285.036 19.3054 283.129 19.7567 280.985 18.7735C279.571 18.1252 279.211 16.7664 279.047 15.303Z" fill="#1E1E1E"/>
<path d="M181.259 11.5825C181.741 10.3511 182.221 9.15913 182.714 7.93408C183.33 7.93408 184.001 7.93408 184.732 7.93408C184.326 8.91873 183.923 9.87614 183.534 10.8396C182.705 12.8984 181.884 14.9609 181.056 17.0207C180.831 17.5802 180.607 18.1406 180.355 18.6881C180.311 18.7841 180.134 18.8645 180.014 18.8715C179.621 18.8944 179.22 18.8393 178.832 18.891C178.404 18.9482 178.236 18.7356 178.1 18.3929C177.248 16.2403 176.393 14.0886 175.529 11.9407C175.02 10.6755 174.491 9.4182 173.975 8.15586C173.952 8.09961 173.965 8.02878 173.959 7.94055C174.64 7.94055 175.308 7.94055 175.986 7.94055C177.092 10.8158 178.199 13.6974 179.319 16.6081C179.975 14.9205 180.616 13.2712 181.259 11.5825Z" fill="#1E1E1E"/>
<path d="M238.749 7.62268C239.576 7.90489 239.576 7.90489 239.576 8.8055C239.576 9.16254 239.576 9.51959 239.576 9.84704C239.035 9.75885 238.539 9.65243 238.036 9.60126C236.873 9.48266 235.808 10.4796 235.449 11.4216C235.255 11.9326 235.159 12.5089 235.149 13.0582C235.114 14.98 235.135 16.9027 235.135 18.8526C234.512 18.8526 233.913 18.8526 233.287 18.8526C233.287 15.2252 233.287 11.5982 233.287 7.94415C233.853 7.94415 234.419 7.94415 235.025 7.94415C235.025 8.47631 235.025 9.00822 235.025 9.64689C235.871 8.12808 237.14 7.59558 238.749 7.62268Z" fill="#1E1E1E"/>
<path d="M263.062 11.6015C262.995 12.0021 262.877 12.3615 262.873 12.7221C262.854 14.5984 262.864 16.475 262.864 18.3515C262.864 18.5124 262.864 18.6733 262.864 18.857C262.231 18.857 261.632 18.857 261.012 18.857C261.012 15.2147 261.012 11.5866 261.012 7.93785C261.583 7.93785 262.138 7.93785 262.732 7.93785C262.732 8.4569 262.732 8.9917 262.732 9.61593C263.855 7.84597 265.363 7.31074 267.288 7.8252C267.288 8.52067 267.288 9.19171 267.288 9.87089C266.844 9.77726 266.419 9.64535 265.985 9.60395C264.668 9.47839 263.848 10.219 263.22 11.2632C263.163 11.3591 263.116 11.4615 263.062 11.6015Z" fill="#1E1E1E"/>
<path d="M131.72 12.658C131.72 9.61601 131.72 6.62349 131.72 3.60126C132.34 3.60126 132.939 3.60126 133.567 3.60126C133.567 8.67024 133.567 13.7454 133.567 18.8504C132.977 18.8504 132.378 18.8504 131.72 18.8504C131.72 16.8071 131.72 14.7572 131.72 12.658Z" fill="#1E1E1E"/>
<path d="M196.838 18.8802C196.366 18.8802 195.941 18.8802 195.492 18.8802C195.492 13.774 195.492 8.69864 195.492 3.59735C196.094 3.59735 196.693 3.59735 197.317 3.59735C197.317 8.67842 197.317 13.7539 197.317 18.8802C197.17 18.8802 197.028 18.8802 196.838 18.8802Z" fill="#1E1E1E"/>
<path d="M81.1757 34.4004V27.3611H82.0273V30.4958H85.7773V27.3611H86.629V34.4004H85.7773V31.252H82.0273V34.4004H81.1757ZM88.7461 36.3802C88.6088 36.3802 88.4863 36.3687 88.3787 36.3458C88.2711 36.3253 88.1967 36.3046 88.1555 36.284L88.3615 35.569C88.5584 35.6195 88.7324 35.6377 88.8835 35.624C89.0346 35.6103 89.1685 35.5427 89.2853 35.4213C89.4043 35.302 89.5131 35.1085 89.6116 34.8403L89.7626 34.4279L87.8121 29.1209H88.6912L90.1473 33.328H90.2021L91.6582 29.1209H92.5374L90.2984 35.1703C90.1976 35.443 90.0729 35.6688 89.9241 35.8474C89.7753 36.0285 89.6024 36.1625 89.4055 36.2496C89.2109 36.3367 88.9911 36.3802 88.7461 36.3802ZM95.41 34.5104C94.9705 34.5104 94.5824 34.3992 94.2459 34.177C93.9093 33.9524 93.646 33.6362 93.4561 33.2284C93.266 32.8182 93.171 32.3335 93.171 31.7744C93.171 31.2199 93.266 30.7387 93.4561 30.3308C93.646 29.923 93.9105 29.6079 94.2493 29.3856C94.5881 29.1634 94.9796 29.0522 95.4238 29.0522C95.7672 29.0522 96.0385 29.1094 96.2376 29.224C96.4391 29.3363 96.5925 29.4647 96.6978 29.609C96.8054 29.7511 96.889 29.868 96.9485 29.9596H97.0172V27.3611H97.8276V34.4004H97.0447V33.5893H96.9485C96.889 33.6854 96.8043 33.8069 96.6944 33.9536C96.5844 34.0979 96.4277 34.2274 96.2239 34.3419C96.0201 34.4542 95.7488 34.5104 95.41 34.5104ZM95.5199 33.7817C95.8451 33.7817 96.1198 33.6969 96.3441 33.5273C96.5685 33.3555 96.739 33.1183 96.8558 32.8159C96.9726 32.5111 97.031 32.1594 97.031 31.7607C97.031 31.3665 96.9737 31.0216 96.8592 30.7261C96.7447 30.4282 96.5754 30.1968 96.351 30.0318C96.1266 29.8645 95.8496 29.7809 95.5199 29.7809C95.1765 29.7809 94.8903 29.8691 94.6614 30.0455C94.4347 30.2197 94.2641 30.4568 94.1497 30.7571C94.0376 31.0549 93.9814 31.3894 93.9814 31.7607C93.9814 32.1365 94.0387 32.4779 94.1531 32.7849C94.2699 33.0897 94.4416 33.3326 94.6682 33.5136C94.8972 33.6924 95.1811 33.7817 95.5199 33.7817ZM101.636 34.5104C101.128 34.5104 100.689 34.3981 100.321 34.1735C99.954 33.9467 99.6718 33.6304 99.4725 33.2249C99.2761 32.817 99.1774 32.3427 99.1774 31.8019C99.1774 31.2612 99.2761 30.7845 99.4725 30.3721C99.6718 29.9573 99.9491 29.6342 100.303 29.4028C100.661 29.1691 101.077 29.0522 101.554 29.0522C101.828 29.0522 102.099 29.098 102.368 29.1896C102.635 29.2813 102.879 29.4302 103.099 29.6366C103.319 29.8404 103.494 30.1108 103.625 30.4477C103.755 30.7845 103.82 31.1992 103.82 31.692V32.0357H99.7537V31.3344H102.996C102.996 31.0366 102.936 30.7708 102.818 30.537C102.7 30.3033 102.533 30.1188 102.316 29.9836C102.101 29.8485 101.847 29.7809 101.554 29.7809C101.231 29.7809 100.952 29.8611 100.716 30.0214C100.482 30.1796 100.302 30.3858 100.177 30.6401C100.051 30.8945 99.9876 31.1672 99.9876 31.4582V31.9256C99.9876 32.3244 100.057 32.6623 100.194 32.9396C100.333 33.2146 100.527 33.4242 100.774 33.5686C101.022 33.7107 101.309 33.7817 101.636 33.7817C101.849 33.7817 102.041 33.7519 102.213 33.6924C102.387 33.6304 102.537 33.5388 102.663 33.4174C102.789 33.2936 102.886 33.1402 102.955 32.9568L103.737 33.1768C103.655 33.4426 103.517 33.6764 103.322 33.8779C103.128 34.0774 102.888 34.2331 102.601 34.3454C102.314 34.4554 101.994 34.5104 101.636 34.5104ZM105.053 34.4004V29.1209H105.836V29.9183H105.89C105.987 29.6571 106.161 29.4452 106.412 29.2825C106.665 29.1198 106.948 29.0384 107.264 29.0384C107.324 29.0384 107.398 29.0396 107.488 29.0419C107.577 29.0442 107.645 29.0476 107.69 29.0522V29.8772C107.663 29.8702 107.6 29.86 107.502 29.8461C107.405 29.8301 107.304 29.8221 107.196 29.8221C106.939 29.8221 106.711 29.876 106.509 29.9836C106.31 30.0891 106.152 30.2358 106.036 30.4236C105.921 30.6092 105.864 30.8212 105.864 31.0595V34.4004H105.053ZM110.204 34.5242C109.869 34.5242 109.565 34.4612 109.293 34.3351C109.021 34.2067 108.804 34.0223 108.645 33.7817C108.484 33.5388 108.404 33.2455 108.404 32.9018C108.404 32.5993 108.463 32.3542 108.582 32.1662C108.702 31.9761 108.861 31.8271 109.06 31.7194C109.259 31.6118 109.478 31.5316 109.719 31.4788C109.962 31.4238 110.206 31.3803 110.45 31.3483C110.771 31.307 111.031 31.2761 111.23 31.2554C111.431 31.2325 111.578 31.1947 111.67 31.1419C111.764 31.0893 111.81 30.9976 111.81 30.867V30.8395C111.81 30.5004 111.717 30.2369 111.532 30.049C111.349 29.8611 111.071 29.7671 110.698 29.7671C110.311 29.7671 110.007 29.8519 109.788 30.0214C109.568 30.191 109.413 30.3721 109.324 30.5646L108.555 30.2896C108.692 29.9688 108.876 29.719 109.104 29.5403C109.335 29.3592 109.587 29.2332 109.86 29.1622C110.135 29.0889 110.405 29.0522 110.67 29.0522C110.84 29.0522 111.035 29.0728 111.255 29.1141C111.477 29.153 111.69 29.2344 111.896 29.3581C112.104 29.4819 112.278 29.6686 112.415 29.9183C112.552 30.1681 112.621 30.5026 112.621 30.922V34.4004H111.81V33.6854H111.77C111.714 33.8 111.623 33.9227 111.494 34.0533C111.366 34.1838 111.195 34.295 110.983 34.3867C110.77 34.4783 110.51 34.5242 110.204 34.5242ZM110.327 33.7955C110.648 33.7955 110.917 33.7325 111.137 33.6064C111.359 33.4804 111.527 33.3177 111.638 33.1183C111.753 32.919 111.81 32.7093 111.81 32.4894V31.7469C111.776 31.7882 111.701 31.826 111.584 31.8604C111.47 31.8925 111.337 31.9211 111.186 31.9463C111.037 31.9692 110.891 31.9898 110.749 32.0081C110.609 32.0242 110.497 32.0379 110.409 32.0494C110.199 32.0769 110.001 32.1216 109.819 32.1834C109.638 32.243 109.491 32.3335 109.379 32.4549C109.269 32.5741 109.214 32.7368 109.214 32.943C109.214 33.2249 109.319 33.438 109.527 33.5823C109.737 33.7245 110.004 33.7955 110.327 33.7955ZM114.21 34.4004V27.3611H115.02V29.9596H115.089C115.148 29.868 115.231 29.7511 115.336 29.609C115.445 29.4647 115.597 29.3363 115.797 29.224C115.998 29.1094 116.27 29.0522 116.614 29.0522C117.058 29.0522 117.45 29.1634 117.788 29.3856C118.128 29.6079 118.392 29.923 118.581 30.3308C118.772 30.7387 118.867 31.2199 118.867 31.7744C118.867 32.3335 118.772 32.8182 118.581 33.2284C118.392 33.6362 118.129 33.9524 117.792 34.177C117.456 34.3992 117.067 34.5104 116.628 34.5104C116.289 34.5104 116.018 34.4542 115.814 34.3419C115.61 34.2274 115.453 34.0979 115.343 33.9536C115.233 33.8069 115.148 33.6854 115.089 33.5893H114.993V34.4004H114.21ZM115.006 31.7607C115.006 32.1594 115.066 32.5111 115.182 32.8159C115.298 33.1183 115.469 33.3555 115.693 33.5273C115.918 33.6969 116.192 33.7817 116.518 33.7817C116.857 33.7817 117.14 33.6924 117.366 33.5136C117.595 33.3326 117.766 33.0897 117.881 32.7849C117.998 32.4779 118.057 32.1365 118.057 31.7607C118.057 31.3894 117.999 31.0549 117.885 30.7571C117.772 30.4568 117.602 30.2197 117.373 30.0455C117.147 29.8691 116.862 29.7809 116.518 29.7809C116.189 29.7809 115.911 29.8645 115.686 30.0318C115.462 30.1968 115.293 30.4282 115.178 30.7261C115.064 31.0216 115.006 31.3665 115.006 31.7607ZM121.658 34.5242C121.325 34.5242 121.021 34.4612 120.748 34.3351C120.476 34.2067 120.26 34.0223 120.099 33.7817C119.939 33.5388 119.859 33.2455 119.859 32.9018C119.859 32.5993 119.919 32.3542 120.038 32.1662C120.156 31.9761 120.316 31.8271 120.516 31.7194C120.714 31.6118 120.934 31.5316 121.175 31.4788C121.417 31.4238 121.661 31.3803 121.906 31.3483C122.227 31.307 122.486 31.2761 122.686 31.2554C122.887 31.2325 123.034 31.1947 123.125 31.1419C123.219 31.0893 123.266 30.9976 123.266 30.867V30.8395C123.266 30.5004 123.173 30.2369 122.987 30.049C122.805 29.8611 122.527 29.7671 122.154 29.7671C121.766 29.7671 121.463 29.8519 121.243 30.0214C121.024 30.191 120.869 30.3721 120.779 30.5646L120.01 30.2896C120.148 29.9688 120.331 29.719 120.56 29.5403C120.791 29.3592 121.043 29.2332 121.315 29.1622C121.59 29.0889 121.861 29.0522 122.126 29.0522C122.295 29.0522 122.49 29.0728 122.709 29.1141C122.931 29.153 123.145 29.2344 123.352 29.3581C123.56 29.4819 123.732 29.6686 123.871 29.9183C124.008 30.1681 124.076 30.5026 124.076 30.922V34.4004H123.266V33.6854H123.224C123.17 33.8 123.078 33.9227 122.95 34.0533C122.822 34.1838 122.651 34.295 122.438 34.3867C122.226 34.4783 121.965 34.5242 121.658 34.5242ZM121.783 33.7955C122.102 33.7955 122.373 33.7325 122.593 33.6064C122.815 33.4804 122.982 33.3177 123.094 33.1183C123.209 32.919 123.266 32.7093 123.266 32.4894V31.7469C123.231 31.7882 123.156 31.826 123.039 31.8604C122.924 31.8925 122.792 31.9211 122.641 31.9463C122.492 31.9692 122.347 31.9898 122.205 32.0081C122.065 32.0242 121.951 32.0379 121.865 32.0494C121.654 32.0769 121.457 32.1216 121.274 32.1834C121.093 32.243 120.947 32.3335 120.834 32.4549C120.725 32.5741 120.67 32.7368 120.67 32.943C120.67 33.2249 120.774 33.438 120.982 33.5823C121.193 33.7245 121.46 33.7955 121.783 33.7955ZM127.547 34.5104C127.107 34.5104 126.719 34.3992 126.383 34.177C126.046 33.9524 125.783 33.6362 125.594 33.2284C125.403 32.8182 125.308 32.3335 125.308 31.7744C125.308 31.2199 125.403 30.7387 125.594 30.3308C125.783 29.923 126.047 29.6079 126.387 29.3856C126.725 29.1634 127.117 29.0522 127.561 29.0522C127.905 29.0522 128.176 29.1094 128.375 29.224C128.577 29.3363 128.73 29.4647 128.835 29.609C128.943 29.7511 129.027 29.868 129.086 29.9596H129.155V27.3611H129.965V34.4004H129.181V33.5893H129.086C129.027 33.6854 128.942 33.8069 128.831 33.9536C128.722 34.0979 128.565 34.2274 128.361 34.3419C128.157 34.4542 127.886 34.5104 127.547 34.5104ZM127.657 33.7817C127.983 33.7817 128.257 33.6969 128.482 33.5273C128.706 33.3555 128.877 33.1183 128.993 32.8159C129.109 32.5111 129.169 32.1594 129.169 31.7607C129.169 31.3665 129.111 31.0216 128.997 30.7261C128.883 30.4282 128.713 30.1968 128.488 30.0318C128.264 29.8645 127.987 29.7809 127.657 29.7809C127.314 29.7809 127.027 29.8691 126.798 30.0455C126.572 30.2197 126.402 30.4568 126.287 30.7571C126.175 31.0549 126.119 31.3894 126.119 31.7607C126.119 32.1365 126.176 32.4779 126.29 32.7849C126.408 33.0897 126.579 33.3326 126.805 33.5136C127.034 33.6924 127.318 33.7817 127.657 33.7817ZM135.243 27.3611V34.4004H134.392V27.3611H135.243ZM137.651 31.2245V34.4004H136.841V29.1209H137.623V29.9459H137.692C137.816 29.6777 138.004 29.4623 138.256 29.2997C138.508 29.1347 138.832 29.0522 139.231 29.0522C139.588 29.0522 139.901 29.1255 140.168 29.2722C140.437 29.4165 140.645 29.6366 140.794 29.9321C140.942 30.2254 141.017 30.5967 141.017 31.0457V34.4004H140.206V31.1008C140.206 30.686 140.098 30.3629 139.883 30.1315C139.668 29.8977 139.373 29.7809 138.997 29.7809C138.738 29.7809 138.508 29.8371 138.303 29.9493C138.102 30.0615 137.943 30.2254 137.827 30.4408C137.709 30.6562 137.651 30.9175 137.651 31.2245ZM146.234 30.3033L145.506 30.5095C145.46 30.3881 145.392 30.2701 145.304 30.1556C145.217 30.0386 145.097 29.9424 144.946 29.8668C144.795 29.7912 144.602 29.7534 144.366 29.7534C144.043 29.7534 143.774 29.8279 143.559 29.9768C143.346 30.1235 143.239 30.3102 143.239 30.537C143.239 30.7387 143.313 30.898 143.459 31.0148C143.606 31.1317 143.835 31.2291 144.146 31.307L144.93 31.4995C145.4 31.614 145.753 31.7894 145.983 32.0253C146.214 32.2591 146.33 32.5604 146.33 32.9293C146.33 33.2318 146.243 33.5021 146.069 33.7405C145.898 33.9788 145.657 34.1666 145.348 34.3042C145.039 34.4417 144.68 34.5104 144.269 34.5104C143.732 34.5104 143.287 34.3935 142.934 34.1598C142.581 33.926 142.358 33.5846 142.264 33.1355L143.033 32.943C143.107 33.2272 143.245 33.4403 143.449 33.5823C143.655 33.7245 143.924 33.7955 144.256 33.7955C144.634 33.7955 144.933 33.7153 145.156 33.5549C145.381 33.3922 145.492 33.1974 145.492 32.9706C145.492 32.7873 145.428 32.6337 145.3 32.5099C145.171 32.3839 144.975 32.29 144.709 32.2282L143.83 32.0219C143.347 31.9074 142.992 31.7297 142.766 31.4891C142.542 31.2462 142.429 30.9426 142.429 30.5783C142.429 30.2804 142.513 30.0169 142.68 29.7878C142.849 29.5586 143.079 29.3787 143.37 29.2481C143.664 29.1175 143.995 29.0522 144.366 29.0522C144.888 29.0522 145.298 29.1667 145.596 29.3959C145.896 29.6251 146.108 29.9275 146.234 30.3033ZM149.844 29.1209V29.8084H147.11V29.1209H149.844ZM147.908 27.8561H148.718V32.888C148.718 33.1173 148.751 33.2891 148.817 33.4037C148.886 33.5159 148.973 33.5915 149.078 33.6304C149.186 33.6672 149.299 33.6854 149.418 33.6854C149.507 33.6854 149.581 33.6809 149.638 33.6717C149.696 33.6603 149.741 33.6511 149.776 33.6443L149.94 34.373C149.885 34.3935 149.808 34.4141 149.711 34.4348C149.612 34.4577 149.486 34.4692 149.336 34.4692C149.107 34.4692 148.883 34.4199 148.663 34.3214C148.445 34.2228 148.265 34.0727 148.12 33.8711C147.979 33.6694 147.908 33.4151 147.908 33.1081V27.8561ZM151.063 34.4004V29.1209H151.874V34.4004H151.063ZM151.475 28.241C151.317 28.241 151.181 28.1872 151.066 28.0795C150.955 27.9718 150.899 27.8423 150.899 27.6911C150.899 27.5399 150.955 27.4104 151.066 27.3027C151.181 27.195 151.317 27.1412 151.475 27.1412C151.634 27.1412 151.768 27.195 151.88 27.3027C151.995 27.4104 152.052 27.5399 152.052 27.6911C152.052 27.8423 151.995 27.9718 151.88 28.0795C151.768 28.1872 151.634 28.241 151.475 28.241ZM155.652 29.1209V29.8084H152.919V29.1209H155.652ZM153.715 27.8561H154.526V32.888C154.526 33.1173 154.559 33.2891 154.626 33.4037C154.694 33.5159 154.781 33.5915 154.886 33.6304C154.994 33.6672 155.107 33.6854 155.227 33.6854C155.315 33.6854 155.388 33.6809 155.446 33.6717C155.503 33.6603 155.549 33.6511 155.584 33.6443L155.749 34.373C155.693 34.3935 155.616 34.4141 155.518 34.4348C155.42 34.4577 155.295 34.4692 155.144 34.4692C154.915 34.4692 154.691 34.4199 154.471 34.3214C154.254 34.2228 154.072 34.0727 153.928 33.8711C153.786 33.6694 153.715 33.4151 153.715 33.1081V27.8561ZM160.195 32.2419V29.1209H161.006V34.4004H160.195V33.5068H160.141C160.016 33.7748 159.825 34.0029 159.564 34.1907C159.303 34.3763 158.972 34.4692 158.575 34.4692C158.245 34.4692 157.952 34.397 157.696 34.2526C157.439 34.106 157.238 33.8859 157.091 33.5927C156.945 33.2971 156.872 32.9248 156.872 32.4756V29.1209H157.682V32.4206C157.682 32.8055 157.789 33.1126 158.004 33.3417C158.221 33.5709 158.499 33.6854 158.835 33.6854C159.037 33.6854 159.242 33.6339 159.45 33.5308C159.661 33.4277 159.837 33.2695 159.979 33.0565C160.123 32.8434 160.195 32.5719 160.195 32.2419ZM164.785 29.1209V29.8084H162.05V29.1209H164.785ZM162.848 27.8561H163.658V32.888C163.658 33.1173 163.691 33.2891 163.757 33.4037C163.826 33.5159 163.913 33.5915 164.019 33.6304C164.126 33.6672 164.239 33.6854 164.358 33.6854C164.448 33.6854 164.521 33.6809 164.578 33.6717C164.636 33.6603 164.681 33.6511 164.715 33.6443L164.88 34.373C164.825 34.3935 164.749 34.4141 164.65 34.4348C164.552 34.4577 164.427 34.4692 164.276 34.4692C164.047 34.4692 163.822 34.4199 163.602 34.3214C163.385 34.2228 163.205 34.0727 163.061 33.8711C162.919 33.6694 162.848 33.4151 162.848 33.1081V27.8561ZM168.158 34.5104C167.65 34.5104 167.212 34.3981 166.843 34.1735C166.477 33.9467 166.194 33.6304 165.994 33.2249C165.798 32.817 165.699 32.3427 165.699 31.8019C165.699 31.2612 165.798 30.7845 165.994 30.3721C166.194 29.9573 166.471 29.6342 166.826 29.4028C167.183 29.1691 167.6 29.0522 168.075 29.0522C168.351 29.0522 168.622 29.098 168.89 29.1896C169.158 29.2813 169.402 29.4302 169.621 29.6366C169.841 29.8404 170.016 30.1108 170.147 30.4477C170.277 30.7845 170.342 31.1992 170.342 31.692V32.0357H166.277V31.3344H169.518C169.518 31.0366 169.459 30.7708 169.34 30.537C169.223 30.3033 169.055 30.1188 168.838 29.9836C168.623 29.8485 168.369 29.7809 168.075 29.7809C167.753 29.7809 167.474 29.8611 167.238 30.0214C167.005 30.1796 166.824 30.3858 166.699 30.6401C166.573 30.8945 166.509 31.1672 166.509 31.4582V31.9256C166.509 32.3244 166.579 32.6623 166.716 32.9396C166.856 33.2146 167.049 33.4242 167.296 33.5686C167.544 33.7107 167.831 33.7817 168.158 33.7817C168.372 33.7817 168.564 33.7519 168.736 33.6924C168.909 33.6304 169.059 33.5388 169.185 33.4174C169.311 33.2936 169.409 33.1402 169.477 32.9568L170.26 33.1768C170.177 33.4426 170.039 33.6764 169.845 33.8779C169.649 34.0774 169.41 34.2331 169.123 34.3454C168.837 34.4554 168.516 34.5104 168.158 34.5104ZM176.437 34.5104C175.962 34.5104 175.543 34.397 175.184 34.1701C174.827 33.9432 174.548 33.6259 174.346 33.218C174.147 32.8102 174.047 32.3335 174.047 31.7882C174.047 31.2382 174.147 30.7581 174.346 30.348C174.548 29.9378 174.827 29.6194 175.184 29.3925C175.543 29.1656 175.962 29.0522 176.437 29.0522C176.914 29.0522 177.331 29.1656 177.688 29.3925C178.047 29.6194 178.326 29.9378 178.526 30.348C178.727 30.7581 178.828 31.2382 178.828 31.7882C178.828 32.3335 178.727 32.8102 178.526 33.218C178.326 33.6259 178.047 33.9432 177.688 34.1701C177.331 34.397 176.914 34.5104 176.437 34.5104ZM176.437 33.7817C176.8 33.7817 177.098 33.6889 177.331 33.5033C177.564 33.3177 177.737 33.0737 177.85 32.7712C177.961 32.4688 178.017 32.1411 178.017 31.7882C178.017 31.4353 177.961 31.1065 177.85 30.8017C177.737 30.4969 177.564 30.2506 177.331 30.0627C177.098 29.8748 176.8 29.7809 176.437 29.7809C176.076 29.7809 175.778 29.8748 175.545 30.0627C175.312 30.2506 175.139 30.4969 175.026 30.8017C174.914 31.1065 174.859 31.4353 174.859 31.7882C174.859 32.1411 174.914 32.4688 175.026 32.7712C175.139 33.0737 175.312 33.3177 175.545 33.5033C175.778 33.6889 176.076 33.7817 176.437 33.7817ZM182.414 29.1209V29.8084H179.571V29.1209H182.414ZM180.422 34.4004V28.3923C180.422 28.0898 180.493 27.8377 180.635 27.6361C180.777 27.4345 180.962 27.2832 181.188 27.1824C181.415 27.0816 181.654 27.0311 181.906 27.0311C182.105 27.0311 182.267 27.0472 182.394 27.0793C182.519 27.1113 182.614 27.1412 182.675 27.1686L182.442 27.8698C182.401 27.8561 182.343 27.8389 182.27 27.8183C182.199 27.7976 182.105 27.7874 181.988 27.7874C181.721 27.7874 181.527 27.8549 181.408 27.9901C181.291 28.1253 181.233 28.3236 181.233 28.5847V34.4004H180.422ZM185.995 28.1173V27.3611H191.27V28.1173H189.058V34.4004H188.207V28.1173H185.995ZM193.921 34.5104C193.413 34.5104 192.974 34.3981 192.606 34.1735C192.24 33.9467 191.957 33.6304 191.757 33.2249C191.561 32.817 191.462 32.3427 191.462 31.8019C191.462 31.2612 191.561 30.7845 191.757 30.3721C191.957 29.9573 192.234 29.6342 192.588 29.4028C192.945 29.1691 193.363 29.0522 193.838 29.0522C194.114 29.0522 194.384 29.098 194.652 29.1896C194.92 29.2813 195.164 29.4302 195.384 29.6366C195.604 29.8404 195.778 30.1108 195.91 30.4477C196.04 30.7845 196.105 31.1992 196.105 31.692V32.0357H192.039V31.3344H195.281C195.281 31.0366 195.221 30.7708 195.102 30.537C194.986 30.3033 194.818 30.1188 194.601 29.9836C194.386 29.8485 194.131 29.7809 193.838 29.7809C193.516 29.7809 193.236 29.8611 193.001 30.0214C192.767 30.1796 192.587 30.3858 192.462 30.6401C192.336 30.8945 192.272 31.1672 192.272 31.4582V31.9256C192.272 32.3244 192.341 32.6623 192.479 32.9396C192.619 33.2146 192.812 33.4242 193.059 33.5686C193.306 33.7107 193.594 33.7817 193.921 33.7817C194.133 33.7817 194.326 33.7519 194.498 33.6924C194.672 33.6304 194.822 33.5388 194.948 33.4174C195.074 33.2936 195.171 33.1402 195.24 32.9568L196.023 33.1768C195.94 33.4426 195.802 33.6764 195.607 33.8779C195.412 34.0774 195.173 34.2331 194.886 34.3454C194.6 34.4554 194.278 34.5104 193.921 34.5104ZM199.481 34.5104C198.986 34.5104 198.56 34.3935 198.203 34.1598C197.846 33.926 197.571 33.6042 197.379 33.194C197.187 32.7838 197.091 32.3152 197.091 31.7882C197.091 31.252 197.189 30.7788 197.386 30.3686C197.585 29.9562 197.862 29.6342 198.217 29.4028C198.574 29.1691 198.99 29.0522 199.467 29.0522C199.838 29.0522 200.173 29.1209 200.47 29.2584C200.768 29.3959 201.011 29.5884 201.202 29.8359C201.391 30.0834 201.51 30.3721 201.555 30.702H200.745C200.683 30.4614 200.546 30.2483 200.332 30.0627C200.122 29.8748 199.838 29.7809 199.481 29.7809C199.165 29.7809 198.888 29.8633 198.65 30.0284C198.414 30.191 198.23 30.4214 198.096 30.7192C197.966 31.0148 197.901 31.362 197.901 31.7607C197.901 32.1685 197.965 32.5238 198.093 32.8262C198.224 33.1287 198.407 33.3636 198.643 33.5308C198.881 33.6981 199.16 33.7817 199.481 33.7817C199.691 33.7817 199.882 33.7451 200.054 33.6717C200.226 33.5984 200.371 33.493 200.49 33.3555C200.61 33.218 200.695 33.0531 200.745 32.8606H201.555C201.51 33.1722 201.396 33.4529 201.215 33.7026C201.036 33.9501 200.799 34.1472 200.504 34.2938C200.211 34.4382 199.87 34.5104 199.481 34.5104ZM203.55 31.2245V34.4004H202.74V27.3611H203.55V29.9459H203.619C203.743 29.6732 203.928 29.4566 204.175 29.2962C204.425 29.1335 204.757 29.0522 205.172 29.0522C205.531 29.0522 205.846 29.1244 206.116 29.2688C206.385 29.4108 206.595 29.6296 206.743 29.9253C206.895 30.2186 206.97 30.592 206.97 31.0457V34.4004H206.16V31.1008C206.16 30.6814 206.052 30.3572 205.834 30.128C205.619 29.8966 205.32 29.7809 204.938 29.7809C204.672 29.7809 204.433 29.8371 204.223 29.9493C204.015 30.0615 203.85 30.2254 203.729 30.4408C203.609 30.6562 203.55 30.9175 203.55 31.2245ZM209.264 31.2245V34.4004H208.454V29.1209H209.236V29.9459H209.305C209.429 29.6777 209.616 29.4623 209.868 29.2997C210.12 29.1347 210.445 29.0522 210.844 29.0522C211.201 29.0522 211.513 29.1255 211.781 29.2722C212.048 29.4165 212.257 29.6366 212.406 29.9321C212.555 30.2254 212.629 30.5967 212.629 31.0457V34.4004H211.819V31.1008C211.819 30.686 211.711 30.3629 211.496 30.1315C211.281 29.8977 210.986 29.7809 210.61 29.7809C210.351 29.7809 210.12 29.8371 209.916 29.9493C209.715 30.0615 209.556 30.2254 209.438 30.4408C209.322 30.6562 209.264 30.9175 209.264 31.2245ZM216.253 34.5104C215.777 34.5104 215.359 34.397 215 34.1701C214.643 33.9432 214.363 33.6259 214.161 33.218C213.963 32.8102 213.863 32.3335 213.863 31.7882C213.863 31.2382 213.963 30.7581 214.161 30.348C214.363 29.9378 214.643 29.6194 215 29.3925C215.359 29.1656 215.777 29.0522 216.253 29.0522C216.729 29.0522 217.146 29.1656 217.503 29.3925C217.863 29.6194 218.142 29.9378 218.341 30.348C218.542 30.7581 218.643 31.2382 218.643 31.7882C218.643 32.3335 218.542 32.8102 218.341 33.218C218.142 33.6259 217.863 33.9432 217.503 34.1701C217.146 34.397 216.729 34.5104 216.253 34.5104ZM216.253 33.7817C216.614 33.7817 216.912 33.6889 217.146 33.5033C217.379 33.3177 217.553 33.0737 217.664 32.7712C217.777 32.4688 217.833 32.1411 217.833 31.7882C217.833 31.4353 217.777 31.1065 217.664 30.8017C217.553 30.4969 217.379 30.2506 217.146 30.0627C216.912 29.8748 216.614 29.7809 216.253 29.7809C215.891 29.7809 215.594 29.8748 215.36 30.0627C215.126 30.2506 214.954 30.4969 214.842 30.8017C214.73 31.1065 214.673 31.4353 214.673 31.7882C214.673 32.1411 214.73 32.4688 214.842 32.7712C214.954 33.0737 215.126 33.3177 215.36 33.5033C215.594 33.6889 215.891 33.7817 216.253 33.7817ZM220.691 27.3611V34.4004H219.881V27.3611H220.691ZM224.318 34.5104C223.841 34.5104 223.424 34.397 223.065 34.1701C222.708 33.9432 222.428 33.6259 222.227 33.218C222.028 32.8102 221.928 32.3335 221.928 31.7882C221.928 31.2382 222.028 30.7581 222.227 30.348C222.428 29.9378 222.708 29.6194 223.065 29.3925C223.424 29.1656 223.841 29.0522 224.318 29.0522C224.794 29.0522 225.211 29.1656 225.568 29.3925C225.928 29.6194 226.207 29.9378 226.406 30.348C226.607 30.7581 226.708 31.2382 226.708 31.7882C226.708 32.3335 226.607 32.8102 226.406 33.218C226.207 33.6259 225.928 33.9432 225.568 34.1701C225.211 34.397 224.794 34.5104 224.318 34.5104ZM224.318 33.7817C224.679 33.7817 224.977 33.6889 225.211 33.5033C225.444 33.3177 225.618 33.0737 225.729 32.7712C225.842 32.4688 225.898 32.1411 225.898 31.7882C225.898 31.4353 225.842 31.1065 225.729 30.8017C225.618 30.4969 225.444 30.2506 225.211 30.0627C224.977 29.8748 224.679 29.7809 224.318 29.7809C223.956 29.7809 223.659 29.8748 223.425 30.0627C223.191 30.2506 223.018 30.4969 222.907 30.8017C222.794 31.1065 222.738 31.4353 222.738 31.7882C222.738 32.1411 222.794 32.4688 222.907 32.7712C223.018 33.0737 223.191 33.3177 223.425 33.5033C223.659 33.6889 223.956 33.7817 224.318 33.7817ZM230.074 36.4902C229.683 36.4902 229.347 36.4398 229.065 36.339C228.783 36.2404 228.548 36.1098 228.361 35.9471C228.175 35.7867 228.027 35.6148 227.918 35.4315L228.563 34.9779C228.636 35.0741 228.729 35.1841 228.841 35.3078C228.954 35.4338 229.107 35.5427 229.301 35.6344C229.499 35.7283 229.756 35.7752 230.074 35.7752C230.5 35.7752 230.852 35.6721 231.129 35.4659C231.406 35.2597 231.544 34.9366 231.544 34.4966V33.4242H231.475C231.416 33.5205 231.331 33.6396 231.222 33.7817C231.114 33.9215 230.958 34.0463 230.755 34.1564C230.553 34.264 230.28 34.3179 229.937 34.3179C229.512 34.3179 229.129 34.2171 228.79 34.0154C228.454 33.8138 228.187 33.5205 227.99 33.1355C227.795 32.7505 227.698 32.2831 227.698 31.7332C227.698 31.1924 227.793 30.7215 227.983 30.3205C228.173 29.9173 228.438 29.6055 228.776 29.3856C229.115 29.1634 229.507 29.0522 229.951 29.0522C230.294 29.0522 230.566 29.1094 230.768 29.224C230.972 29.3363 231.128 29.4647 231.235 29.609C231.345 29.7511 231.43 29.868 231.489 29.9596H231.572V29.1209H232.354V34.5516C232.354 35.0053 232.252 35.3742 232.046 35.6584C231.842 35.9448 231.567 36.1545 231.222 36.2874C230.878 36.4226 230.495 36.4902 230.074 36.4902ZM230.047 33.5893C230.372 33.5893 230.646 33.5148 230.871 33.3658C231.095 33.2169 231.266 33.0026 231.382 32.7231C231.5 32.4435 231.558 32.109 231.558 31.7194C231.558 31.3391 231.501 31.0034 231.386 30.7123C231.272 30.4214 231.102 30.1933 230.878 30.0284C230.653 29.8633 230.377 29.7809 230.047 29.7809C229.704 29.7809 229.418 29.868 229.189 30.0421C228.962 30.2162 228.791 30.45 228.677 30.7433C228.564 31.0366 228.509 31.362 228.509 31.7194C228.509 32.086 228.566 32.4103 228.681 32.6922C228.797 32.9717 228.969 33.1917 229.196 33.3521C229.425 33.5101 229.708 33.5893 230.047 33.5893ZM234.361 36.3802C234.222 36.3802 234.1 36.3687 233.992 36.3458C233.885 36.3253 233.811 36.3046 233.769 36.284L233.976 35.569C234.172 35.6195 234.347 35.6377 234.498 35.624C234.649 35.6103 234.783 35.5427 234.899 35.4213C235.019 35.302 235.127 35.1085 235.226 34.8403L235.377 34.4279L233.426 29.1209H234.305L235.762 33.328H235.816L237.273 29.1209H238.152L235.913 35.1703C235.812 35.443 235.687 35.6688 235.538 35.8474C235.39 36.0285 235.216 36.1625 235.02 36.2496C234.825 36.3367 234.605 36.3802 234.361 36.3802ZM243.493 34.5242C243.159 34.5242 242.856 34.4612 242.583 34.3351C242.311 34.2067 242.094 34.0223 241.934 33.7817C241.774 33.5388 241.693 33.2455 241.693 32.9018C241.693 32.5993 241.754 32.3542 241.872 32.1662C241.991 31.9761 242.15 31.8271 242.35 31.7194C242.549 31.6118 242.769 31.5316 243.009 31.4788C243.251 31.4238 243.495 31.3803 243.741 31.3483C244.061 31.307 244.321 31.2761 244.52 31.2554C244.722 31.2325 244.868 31.1947 244.96 31.1419C245.053 31.0893 245.101 30.9976 245.101 30.867V30.8395C245.101 30.5004 245.008 30.2369 244.822 30.049C244.639 29.8611 244.361 29.7671 243.988 29.7671C243.601 29.7671 243.298 29.8519 243.078 30.0214C242.858 30.191 242.704 30.3721 242.614 30.5646L241.845 30.2896C241.982 29.9688 242.165 29.719 242.394 29.5403C242.626 29.3592 242.877 29.2332 243.15 29.1622C243.424 29.0889 243.695 29.0522 243.96 29.0522C244.13 29.0522 244.324 29.0728 244.544 29.1141C244.766 29.153 244.98 29.2344 245.187 29.3581C245.395 29.4819 245.567 29.6686 245.705 29.9183C245.842 30.1681 245.911 30.5026 245.911 30.922V34.4004H245.101V33.6854H245.059C245.004 33.8 244.912 33.9227 244.785 34.0533C244.657 34.1838 244.486 34.295 244.273 34.3867C244.06 34.4783 243.8 34.5242 243.493 34.5242ZM243.617 33.7955C243.937 33.7955 244.208 33.7325 244.428 33.6064C244.65 33.4804 244.817 33.3177 244.929 33.1183C245.043 32.919 245.101 32.7093 245.101 32.4894V31.7469C245.066 31.7882 244.99 31.826 244.874 31.8604C244.759 31.8925 244.626 31.9211 244.475 31.9463C244.326 31.9692 244.181 31.9898 244.039 32.0081C243.9 32.0242 243.786 32.0379 243.699 32.0494C243.488 32.0769 243.292 32.1216 243.108 32.1834C242.928 32.243 242.781 32.3335 242.669 32.4549C242.559 32.5741 242.504 32.7368 242.504 32.943C242.504 33.2249 242.608 33.438 242.816 33.5823C243.027 33.7245 243.294 33.7955 243.617 33.7955ZM248.2 31.2245V34.4004H247.39V29.1209H248.174V29.9459H248.242C248.365 29.6777 248.553 29.4623 248.805 29.2997C249.057 29.1347 249.382 29.0522 249.78 29.0522C250.137 29.0522 250.45 29.1255 250.717 29.2722C250.986 29.4165 251.194 29.6366 251.343 29.9321C251.491 30.2254 251.566 30.5967 251.566 31.0457V34.4004H250.756V31.1008C250.756 30.686 250.648 30.3629 250.432 30.1315C250.217 29.8977 249.922 29.7809 249.547 29.7809C249.288 29.7809 249.057 29.8371 248.853 29.9493C248.651 30.0615 248.492 30.2254 248.376 30.4408C248.259 30.6562 248.2 30.9175 248.2 31.2245ZM255.039 34.5104C254.599 34.5104 254.211 34.3992 253.874 34.177C253.538 33.9524 253.275 33.6362 253.085 33.2284C252.894 32.8182 252.8 32.3335 252.8 31.7744C252.8 31.2199 252.894 30.7387 253.085 30.3308C253.275 29.923 253.539 29.6079 253.878 29.3856C254.217 29.1634 254.608 29.0522 255.052 29.0522C255.396 29.0522 255.667 29.1094 255.866 29.224C256.068 29.3363 256.221 29.4647 256.326 29.609C256.434 29.7511 256.518 29.868 256.577 29.9596H256.646V27.3611H257.456V34.4004H256.674V33.5893H256.577C256.518 33.6854 256.433 33.8069 256.323 33.9536C256.213 34.0979 256.056 34.2274 255.853 34.3419C255.648 34.4542 255.378 34.5104 255.039 34.5104ZM255.148 33.7817C255.474 33.7817 255.748 33.6969 255.973 33.5273C256.197 33.3555 256.368 33.1183 256.484 32.8159C256.602 32.5111 256.66 32.1594 256.66 31.7607C256.66 31.3665 256.603 31.0216 256.488 30.7261C256.374 30.4282 256.204 30.1968 255.98 30.0318C255.755 29.8645 255.479 29.7809 255.148 29.7809C254.805 29.7809 254.519 29.8691 254.29 30.0455C254.064 30.2197 253.893 30.4568 253.778 30.7571C253.666 31.0549 253.61 31.3894 253.61 31.7607C253.61 32.1365 253.667 32.4779 253.781 32.7849C253.899 33.0897 254.071 33.3326 254.297 33.5136C254.525 33.6924 254.81 33.7817 255.148 33.7817ZM261.883 27.3611H262.899L265.289 33.2043H265.372L267.762 27.3611H268.779V34.4004H267.982V29.0522H267.913L265.716 34.4004H264.946L262.748 29.0522H262.679V34.4004H261.883V27.3611ZM271.928 34.5242C271.594 34.5242 271.291 34.4612 271.019 34.3351C270.746 34.2067 270.53 34.0223 270.369 33.7817C270.209 33.5388 270.129 33.2455 270.129 32.9018C270.129 32.5993 270.189 32.3542 270.308 32.1662C270.426 31.9761 270.585 31.8271 270.785 31.7194C270.984 31.6118 271.204 31.5316 271.445 31.4788C271.687 31.4238 271.931 31.3803 272.176 31.3483C272.497 31.307 272.756 31.2761 272.956 31.2554C273.157 31.2325 273.303 31.1947 273.395 31.1419C273.488 31.0893 273.536 30.9976 273.536 30.867V30.8395C273.536 30.5004 273.443 30.2369 273.258 30.049C273.074 29.8611 272.797 29.7671 272.423 29.7671C272.036 29.7671 271.733 29.8519 271.513 30.0214C271.293 30.191 271.139 30.3721 271.049 30.5646L270.28 30.2896C270.418 29.9688 270.601 29.719 270.83 29.5403C271.061 29.3592 271.313 29.2332 271.585 29.1622C271.86 29.0889 272.13 29.0522 272.395 29.0522C272.565 29.0522 272.759 29.0728 272.979 29.1141C273.201 29.153 273.415 29.2344 273.622 29.3581C273.83 29.4819 274.003 29.6686 274.14 29.9183C274.278 30.1681 274.346 30.5026 274.346 30.922V34.4004H273.536V33.6854H273.494C273.439 33.8 273.348 33.9227 273.22 34.0533C273.092 34.1838 272.921 34.295 272.708 34.3867C272.495 34.4783 272.235 34.5242 271.928 34.5242ZM272.052 33.7955C272.372 33.7955 272.643 33.7325 272.863 33.6064C273.085 33.4804 273.252 33.3177 273.364 33.1183C273.479 32.919 273.536 32.7093 273.536 32.4894V31.7469C273.501 31.7882 273.426 31.826 273.309 31.8604C273.194 31.8925 273.062 31.9211 272.911 31.9463C272.762 31.9692 272.616 31.9898 272.475 32.0081C272.335 32.0242 272.221 32.0379 272.135 32.0494C271.924 32.0769 271.727 32.1216 271.543 32.1834C271.363 32.243 271.217 32.3335 271.104 32.4549C270.995 32.5741 270.94 32.7368 270.94 32.943C270.94 33.2249 271.043 33.438 271.252 33.5823C271.463 33.7245 271.729 33.7955 272.052 33.7955ZM276.636 31.2245V34.4004H275.825V29.1209H276.609V29.9459H276.677C276.801 29.6777 276.989 29.4623 277.24 29.2997C277.492 29.1347 277.817 29.0522 278.215 29.0522C278.572 29.0522 278.885 29.1255 279.153 29.2722C279.421 29.4165 279.629 29.6366 279.778 29.9321C279.927 30.2254 280.001 30.5967 280.001 31.0457V34.4004H279.191V31.1008C279.191 30.686 279.083 30.3629 278.868 30.1315C278.653 29.8977 278.357 29.7809 277.982 29.7809C277.724 29.7809 277.492 29.8371 277.289 29.9493C277.087 30.0615 276.927 30.2254 276.811 30.4408C276.694 30.6562 276.636 30.9175 276.636 31.2245ZM283.035 34.5242C282.7 34.5242 282.397 34.4612 282.125 34.3351C281.852 34.2067 281.635 34.0223 281.475 33.7817C281.316 33.5388 281.235 33.2455 281.235 32.9018C281.235 32.5993 281.295 32.3542 281.413 32.1662C281.533 31.9761 281.692 31.8271 281.891 31.7194C282.09 31.6118 282.31 31.5316 282.55 31.4788C282.793 31.4238 283.037 31.3803 283.281 31.3483C283.602 31.307 283.862 31.2761 284.061 31.2554C284.263 31.2325 284.409 31.1947 284.501 31.1419C284.595 31.0893 284.642 30.9976 284.642 30.867V30.8395C284.642 30.5004 284.549 30.2369 284.364 30.049C284.18 29.8611 283.902 29.7671 283.529 29.7671C283.142 29.7671 282.839 29.8519 282.619 30.0214C282.399 30.191 282.244 30.3721 282.155 30.5646L281.386 30.2896C281.524 29.9688 281.706 29.719 281.935 29.5403C282.167 29.3592 282.419 29.2332 282.691 29.1622C282.965 29.0889 283.236 29.0522 283.501 29.0522C283.671 29.0522 283.865 29.0728 284.085 29.1141C284.307 29.153 284.522 29.2344 284.728 29.3581C284.936 29.4819 285.109 29.6686 285.246 29.9183C285.383 30.1681 285.452 30.5026 285.452 30.922V34.4004H284.642V33.6854H284.601C284.545 33.8 284.454 33.9227 284.325 34.0533C284.197 34.1838 284.027 34.295 283.814 34.3867C283.601 34.4783 283.341 34.5242 283.035 34.5242ZM283.158 33.7955C283.479 33.7955 283.749 33.7325 283.968 33.6064C284.191 33.4804 284.358 33.3177 284.47 33.1183C284.585 32.919 284.642 32.7093 284.642 32.4894V31.7469C284.607 31.7882 284.532 31.826 284.415 31.8604C284.301 31.8925 284.167 31.9211 284.016 31.9463C283.867 31.9692 283.722 31.9898 283.58 32.0081C283.441 32.0242 283.328 32.0379 283.241 32.0494C283.03 32.0769 282.833 32.1216 282.65 32.1834C282.469 32.243 282.322 32.3335 282.211 32.4549C282.1 32.5741 282.046 32.7368 282.046 32.943C282.046 33.2249 282.149 33.438 282.358 33.5823C282.569 33.7245 282.835 33.7955 283.158 33.7955ZM289.061 36.4902C288.669 36.4902 288.333 36.4398 288.05 36.339C287.769 36.2404 287.534 36.1098 287.347 35.9471C287.161 35.7867 287.013 35.6148 286.904 35.4315L287.549 34.9779C287.623 35.0741 287.716 35.1841 287.827 35.3078C287.94 35.4338 288.093 35.5427 288.288 35.6344C288.485 35.7283 288.742 35.7752 289.061 35.7752C289.486 35.7752 289.837 35.6721 290.115 35.4659C290.392 35.2597 290.53 34.9366 290.53 34.4966V33.4242H290.462C290.402 33.5205 290.317 33.6396 290.207 33.7817C290.1 33.9215 289.944 34.0463 289.741 34.1564C289.539 34.264 289.266 34.3179 288.923 34.3179C288.497 34.3179 288.115 34.2171 287.776 34.0154C287.44 33.8138 287.173 33.5205 286.976 33.1355C286.781 32.7505 286.684 32.2831 286.684 31.7332C286.684 31.1924 286.779 30.7215 286.969 30.3205C287.159 29.9173 287.424 29.6055 287.762 29.3856C288.102 29.1634 288.492 29.0522 288.936 29.0522C289.28 29.0522 289.552 29.1094 289.755 29.224C289.958 29.3363 290.114 29.4647 290.221 29.609C290.331 29.7511 290.416 29.868 290.475 29.9596H290.558V29.1209H291.34V34.5516C291.34 35.0053 291.238 35.3742 291.031 35.6584C290.828 35.9448 290.553 36.1545 290.207 36.2874C289.864 36.4226 289.482 36.4902 289.061 36.4902ZM289.033 33.5893C289.358 33.5893 289.633 33.5148 289.857 33.3658C290.081 33.2169 290.252 33.0026 290.369 32.7231C290.486 32.4435 290.544 32.109 290.544 31.7194C290.544 31.3391 290.487 31.0034 290.372 30.7123C290.258 30.4214 290.088 30.1933 289.864 30.0284C289.64 29.8633 289.363 29.7809 289.033 29.7809C288.69 29.7809 288.404 29.868 288.175 30.0421C287.948 30.2162 287.777 30.45 287.663 30.7433C287.551 31.0366 287.495 31.362 287.495 31.7194C287.495 32.086 287.552 32.4103 287.666 32.6922C287.783 32.9717 287.955 33.1917 288.182 33.3521C288.411 33.5101 288.694 33.5893 289.033 33.5893ZM295.036 34.5104C294.528 34.5104 294.089 34.3981 293.72 34.1735C293.354 33.9467 293.071 33.6304 292.873 33.2249C292.675 32.817 292.577 32.3427 292.577 31.8019C292.577 31.2612 292.675 30.7845 292.873 30.3721C293.071 29.9573 293.348 29.6342 293.704 29.4028C294.061 29.1691 294.477 29.0522 294.953 29.0522C295.228 29.0522 295.5 29.098 295.767 29.1896C296.035 29.2813 296.279 29.4302 296.499 29.6366C296.718 29.8404 296.894 30.1108 297.024 30.4477C297.154 30.7845 297.22 31.1992 297.22 31.692V32.0357H293.154V31.3344H296.396C296.396 31.0366 296.336 30.7708 296.217 30.537C296.101 30.3033 295.933 30.1188 295.716 29.9836C295.501 29.8485 295.246 29.7809 294.953 29.7809C294.63 29.7809 294.351 29.8611 294.115 30.0214C293.882 30.1796 293.703 30.3858 293.576 30.6401C293.45 30.8945 293.388 31.1672 293.388 31.4582V31.9256C293.388 32.3244 293.456 32.6623 293.593 32.9396C293.733 33.2146 293.927 33.4242 294.174 33.5686C294.421 33.7107 294.708 33.7817 295.036 33.7817C295.249 33.7817 295.441 33.7519 295.613 33.6924C295.787 33.6304 295.937 33.5388 296.063 33.4174C296.188 33.2936 296.286 33.1402 296.354 32.9568L297.138 33.1768C297.055 33.4426 296.917 33.6764 296.722 33.8779C296.528 34.0774 296.287 34.2331 296.001 34.3454C295.715 34.4554 295.393 34.5104 295.036 34.5104ZM298.453 34.4004V29.1209H299.236V29.9459H299.305C299.414 29.664 299.592 29.4452 299.836 29.2894C300.081 29.1313 300.376 29.0522 300.72 29.0522C301.067 29.0522 301.357 29.1313 301.588 29.2894C301.822 29.4452 302.003 29.664 302.134 29.9459H302.189C302.324 29.6732 302.526 29.4566 302.797 29.2962C303.067 29.1335 303.391 29.0522 303.769 29.0522C304.24 29.0522 304.626 29.2 304.926 29.4956C305.226 29.7889 305.376 30.246 305.376 30.867V34.4004H304.565V30.867C304.565 30.4775 304.459 30.199 304.246 30.0318C304.033 29.8645 303.783 29.7809 303.494 29.7809C303.123 29.7809 302.836 29.8932 302.632 30.1177C302.429 30.34 302.326 30.6218 302.326 30.9633V34.4004H301.502V30.7845C301.502 30.4844 301.404 30.2426 301.21 30.0593C301.016 29.8737 300.765 29.7809 300.458 29.7809C300.248 29.7809 300.051 29.8371 299.868 29.9493C299.687 30.0615 299.54 30.2174 299.428 30.4167C299.318 30.6138 299.263 30.8418 299.263 31.1008V34.4004H298.453ZM309.069 34.5104C308.561 34.5104 308.122 34.3981 307.754 34.1735C307.387 33.9467 307.105 33.6304 306.906 33.2249C306.709 32.817 306.611 32.3427 306.611 31.8019C306.611 31.2612 306.709 30.7845 306.906 30.3721C307.105 29.9573 307.382 29.6342 307.737 29.4028C308.094 29.1691 308.51 29.0522 308.987 29.0522C309.261 29.0522 309.533 29.098 309.801 29.1896C310.068 29.2813 310.312 29.4302 310.532 29.6366C310.752 29.8404 310.927 30.1108 311.057 30.4477C311.188 30.7845 311.254 31.1992 311.254 31.692V32.0357H307.187V31.3344H310.43C310.43 31.0366 310.369 30.7708 310.251 30.537C310.134 30.3033 309.967 30.1188 309.75 29.9836C309.534 29.8485 309.28 29.7809 308.987 29.7809C308.664 29.7809 308.385 29.8611 308.149 30.0214C307.915 30.1796 307.736 30.3858 307.609 30.6401C307.484 30.8945 307.421 31.1672 307.421 31.4582V31.9256C307.421 32.3244 307.49 32.6623 307.627 32.9396C307.766 33.2146 307.96 33.4242 308.207 33.5686C308.455 33.7107 308.742 33.7817 309.069 33.7817C309.282 33.7817 309.474 33.7519 309.646 33.6924C309.82 33.6304 309.97 33.5388 310.096 33.4174C310.222 33.2936 310.319 33.1402 310.388 32.9568L311.171 33.1768C311.089 33.4426 310.95 33.6764 310.755 33.8779C310.561 34.0774 310.32 34.2331 310.034 34.3454C309.748 34.4554 309.426 34.5104 309.069 34.5104ZM313.297 31.2245V34.4004H312.486V29.1209H313.27V29.9459H313.338C313.462 29.6777 313.649 29.4623 313.901 29.2997C314.153 29.1347 314.478 29.0522 314.876 29.0522C315.233 29.0522 315.546 29.1255 315.813 29.2722C316.082 29.4165 316.29 29.6366 316.439 29.9321C316.588 30.2254 316.662 30.5967 316.662 31.0457V34.4004H315.852V31.1008C315.852 30.686 315.744 30.3629 315.529 30.1315C315.314 29.8977 315.018 29.7809 314.643 29.7809C314.385 29.7809 314.153 29.8371 313.949 29.9493C313.748 30.0615 313.588 30.2254 313.472 30.4408C313.355 30.6562 313.297 30.9175 313.297 31.2245ZM320.438 29.1209V29.8084H317.703V29.1209H320.438ZM318.5 27.8561H319.311V32.888C319.311 33.1173 319.344 33.2891 319.41 33.4037C319.479 33.5159 319.566 33.5915 319.671 33.6304C319.779 33.6672 319.892 33.6854 320.011 33.6854C320.1 33.6854 320.174 33.6809 320.231 33.6717C320.289 33.6603 320.334 33.6511 320.368 33.6443L320.533 34.373C320.478 34.3935 320.402 34.4141 320.303 34.4348C320.205 34.4577 320.08 34.4692 319.928 34.4692C319.699 34.4692 319.475 34.4199 319.255 34.3214C319.038 34.2228 318.858 34.0727 318.714 33.8711C318.572 33.6694 318.5 33.4151 318.5 33.1081V27.8561Z" fill="#34A853"/>
</g>
<defs>
<clipPath id="clip0_1_110">
<rect width="321" height="40" fill="white"/>
</clipPath>
</defs>
</svg>
